solid ascii
  facet normal 0.000000e+00 0.000000e+00 1.000000e+00
    outer loop
      vertex   -5.145768e+01 9.991593e+01 6.627176e+01
      vertex   -5.022056e+01 9.991593e+01 6.627176e+01
      vertex   -5.145768e+01 9.992593e+01 6.627176e+01
    endloop
  endfacet
  facet normal -0.000000e+00 0.000000e+00 8.782898e-01
    outer loop
      vertex   -5.145768e+01 9.992593e+01 6.627176e+01
      vertex   -5.022056e+01 9.991593e+01 6.627176e+01
      vertex   -4.441991e+01 1.126086e+02 6.627176e+01
    endloop
  endfacet
  facet normal 0.000000e+00 -0.000000e+00 8.495389e-01
    outer loop
      vertex   -5.145768e+01 9.992593e+01 6.627176e+01
      vertex   -4.441991e+01 1.126086e+02 6.627176e+01
      vertex   -5.168508e+01 9.991476e+01 6.627176e+01
    endloop
  endfacet
  facet normal 0.000000e+00 -0.000000e+00 8.913962e-01
    outer loop
      vertex   -5.168508e+01 9.991476e+01 6.627176e+01
      vertex   -4.441991e+01 1.126086e+02 6.627176e+01
      vertex   -5.991930e+01 1.124669e+02 6.627176e+01
    endloop
  endfacet
  facet normal 0.000000e+00 0.000000e+00 9.075807e-01
    outer loop
      vertex   -5.168508e+01 9.991476e+01 6.627176e+01
      vertex   -5.991930e+01 1.124669e+02 6.627176e+01
      vertex   -5.191029e+01 9.988136e+01 6.627176e+01
    endloop
  endfacet
  facet normal 0.000000e+00 0.000000e+00 9.488274e-01
    outer loop
      vertex   -5.191029e+01 9.988136e+01 6.627176e+01
      vertex   -5.991930e+01 1.124669e+02 6.627176e+01
      vertex   -5.213114e+01 9.982603e+01 6.627176e+01
    endloop
  endfacet
  facet normal 0.000000e+00 0.000000e+00 9.783262e-01
    outer loop
      vertex   -5.213114e+01 9.982603e+01 6.627176e+01
      vertex   -5.991930e+01 1.124669e+02 6.627176e+01
      vertex   -5.234550e+01 9.974934e+01 6.627176e+01
    endloop
  endfacet
  facet normal 0.000000e+00 0.000000e+00 9.954581e-01
    outer loop
      vertex   -5.234550e+01 9.974934e+01 6.627176e+01
      vertex   -5.991930e+01 1.124669e+02 6.627176e+01
      vertex   -5.255132e+01 9.965199e+01 6.627176e+01
    endloop
  endfacet
  facet normal 0.000000e+00 0.000000e+00 9.998350e-01
    outer loop
      vertex   -5.255132e+01 9.965199e+01 6.627176e+01
      vertex   -5.991930e+01 1.124669e+02 6.627176e+01
      vertex   -5.274660e+01 9.953494e+01 6.627176e+01
    endloop
  endfacet
  facet normal 0.000000e+00 0.000000e+00 9.913362e-01
    outer loop
      vertex   -5.274660e+01 9.953494e+01 6.627176e+01
      vertex   -5.991930e+01 1.124669e+02 6.627176e+01
      vertex   -5.292947e+01 9.939931e+01 6.627176e+01
    endloop
  endfacet
  facet normal 0.000000e+00 0.000000e+00 9.701061e-01
    outer loop
      vertex   -5.292947e+01 9.939931e+01 6.627176e+01
      vertex   -5.991930e+01 1.124669e+02 6.627176e+01
      vertex   -5.309816e+01 9.924642e+01 6.627176e+01
    endloop
  endfacet
  facet normal 0.000000e+00 0.000000e+00 9.365469e-01
    outer loop
      vertex   -5.309816e+01 9.924642e+01 6.627176e+01
      vertex   -5.991930e+01 1.124669e+02 6.627176e+01
      vertex   -5.325106e+01 9.907773e+01 6.627176e+01
    endloop
  endfacet
  facet normal 0.000000e+00 0.000000e+00 8.913007e-01
    outer loop
      vertex   -5.325106e+01 9.907773e+01 6.627176e+01
      vertex   -5.991930e+01 1.124669e+02 6.627176e+01
      vertex   -5.338668e+01 9.889486e+01 6.627176e+01
    endloop
  endfacet
  facet normal 0.000000e+00 0.000000e+00 8.352414e-01
    outer loop
      vertex   -5.338668e+01 9.889486e+01 6.627176e+01
      vertex   -5.991930e+01 1.124669e+02 6.627176e+01
      vertex   -5.350373e+01 9.869958e+01 6.627176e+01
    endloop
  endfacet
  facet normal 0.000000e+00 0.000000e+00 7.693745e-01
    outer loop
      vertex   -5.350373e+01 9.869958e+01 6.627176e+01
      vertex   -5.991930e+01 1.124669e+02 6.627176e+01
      vertex   -5.360108e+01 9.849376e+01 6.627176e+01
    endloop
  endfacet
  facet normal 0.000000e+00 0.000000e+00 6.948853e-01
    outer loop
      vertex   -5.360108e+01 9.849376e+01 6.627176e+01
      vertex   -5.991930e+01 1.124669e+02 6.627176e+01
      vertex   -5.367778e+01 9.827940e+01 6.627176e+01
    endloop
  endfacet
  facet normal 0.000000e+00 0.000000e+00 9.333328e-01
    outer loop
      vertex   -5.367778e+01 9.827940e+01 6.627176e+01
      vertex   -5.991930e+01 1.124669e+02 6.627176e+01
      vertex   -5.973458e+01 9.226772e+01 6.627176e+01
    endloop
  endfacet
  facet normal 0.000000e+00 0.000000e+00 5.173086e-01
    outer loop
      vertex   -5.367778e+01 9.827940e+01 6.627176e+01
      vertex   -5.973458e+01 9.226772e+01 6.627176e+01
      vertex   -5.373310e+01 9.805854e+01 6.627176e+01
    endloop
  endfacet
  facet normal 0.000000e+00 0.000000e+00 6.099393e-01
    outer loop
      vertex   -5.373310e+01 9.805854e+01 6.627176e+01
      vertex   -5.973458e+01 9.226772e+01 6.627176e+01
      vertex   -5.376651e+01 9.783334e+01 6.627176e+01
    endloop
  endfacet
  facet normal 0.000000e+00 0.000000e+00 6.969957e-01
    outer loop
      vertex   -5.376651e+01 9.783334e+01 6.627176e+01
      vertex   -5.973458e+01 9.226772e+01 6.627176e+01
      vertex   -5.377768e+01 9.760593e+01 6.627176e+01
    endloop
  endfacet
  facet normal 0.000000e+00 0.000000e+00 7.765654e-01
    outer loop
      vertex   -5.377768e+01 9.760593e+01 6.627176e+01
      vertex   -5.973458e+01 9.226772e+01 6.627176e+01
      vertex   -5.376651e+01 9.737853e+01 6.627176e+01
    endloop
  endfacet
  facet normal 0.000000e+00 0.000000e+00 8.467774e-01
    outer loop
      vertex   -5.376651e+01 9.737853e+01 6.627176e+01
      vertex   -5.973458e+01 9.226772e+01 6.627176e+01
      vertex   -5.373310e+01 9.715333e+01 6.627176e+01
    endloop
  endfacet
  facet normal 0.000000e+00 0.000000e+00 9.056753e-01
    outer loop
      vertex   -5.373310e+01 9.715333e+01 6.627176e+01
      vertex   -5.973458e+01 9.226772e+01 6.627176e+01
      vertex   -5.367778e+01 9.693247e+01 6.627176e+01
    endloop
  endfacet
  facet normal 0.000000e+00 0.000000e+00 9.515122e-01
    outer loop
      vertex   -5.367778e+01 9.693247e+01 6.627176e+01
      vertex   -5.973458e+01 9.226772e+01 6.627176e+01
      vertex   -5.360108e+01 9.671811e+01 6.627176e+01
    endloop
  endfacet
  facet normal 0.000000e+00 0.000000e+00 9.827681e-01
    outer loop
      vertex   -5.360108e+01 9.671811e+01 6.627176e+01
      vertex   -5.973458e+01 9.226772e+01 6.627176e+01
      vertex   -5.350373e+01 9.651229e+01 6.627176e+01
    endloop
  endfacet
  facet normal 0.000000e+00 0.000000e+00 9.983162e-01
    outer loop
      vertex   -5.350373e+01 9.651229e+01 6.627176e+01
      vertex   -5.973458e+01 9.226772e+01 6.627176e+01
      vertex   -5.338668e+01 9.631701e+01 6.627176e+01
    endloop
  endfacet
  facet normal 0.000000e+00 0.000000e+00 9.975290e-01
    outer loop
      vertex   -5.338668e+01 9.631701e+01 6.627176e+01
      vertex   -5.973458e+01 9.226772e+01 6.627176e+01
      vertex   -5.325106e+01 9.613414e+01 6.627176e+01
    endloop
  endfacet
  facet normal 0.000000e+00 0.000000e+00 9.803461e-01
    outer loop
      vertex   -5.325106e+01 9.613414e+01 6.627176e+01
      vertex   -5.973458e+01 9.226772e+01 6.627176e+01
      vertex   -5.309816e+01 9.596545e+01 6.627176e+01
    endloop
  endfacet
  facet normal 0.000000e+00 0.000000e+00 9.472840e-01
    outer loop
      vertex   -5.309816e+01 9.596545e+01 6.627176e+01
      vertex   -5.973458e+01 9.226772e+01 6.627176e+01
      vertex   -5.292947e+01 9.581255e+01 6.627176e+01
    endloop
  endfacet
  facet normal 0.000000e+00 0.000000e+00 8.993892e-01
    outer loop
      vertex   -5.292947e+01 9.581255e+01 6.627176e+01
      vertex   -5.973458e+01 9.226772e+01 6.627176e+01
      vertex   -5.274660e+01 9.567693e+01 6.627176e+01
    endloop
  endfacet
  facet normal 0.000000e+00 0.000000e+00 8.381410e-01
    outer loop
      vertex   -5.274660e+01 9.567693e+01 6.627176e+01
      vertex   -5.973458e+01 9.226772e+01 6.627176e+01
      vertex   -5.255132e+01 9.555988e+01 6.627176e+01
    endloop
  endfacet
  facet normal 0.000000e+00 0.000000e+00 7.653155e-01
    outer loop
      vertex   -5.255132e+01 9.555988e+01 6.627176e+01
      vertex   -5.973458e+01 9.226772e+01 6.627176e+01
      vertex   -5.234550e+01 9.546253e+01 6.627176e+01
    endloop
  endfacet
  facet normal 0.000000e+00 0.000000e+00 6.828816e-01
    outer loop
      vertex   -5.234550e+01 9.546253e+01 6.627176e+01
      vertex   -5.973458e+01 9.226772e+01 6.627176e+01
      vertex   -5.213114e+01 9.538583e+01 6.627176e+01
    endloop
  endfacet
  facet normal 0.000000e+00 0.000000e+00 5.928674e-01
    outer loop
      vertex   -5.213114e+01 9.538583e+01 6.627176e+01
      vertex   -5.973458e+01 9.226772e+01 6.627176e+01
      vertex   -5.191029e+01 9.533051e+01 6.627176e+01
    endloop
  endfacet
  facet normal 0.000000e+00 0.000000e+00 4.972144e-01
    outer loop
      vertex   -5.191029e+01 9.533051e+01 6.627176e+01
      vertex   -5.973458e+01 9.226772e+01 6.627176e+01
      vertex   -5.168508e+01 9.529710e+01 6.627176e+01
    endloop
  endfacet
  facet normal 0.000000e+00 0.000000e+00 3.977172e-01
    outer loop
      vertex   -5.168508e+01 9.529710e+01 6.627176e+01
      vertex   -5.973458e+01 9.226772e+01 6.627176e+01
      vertex   -5.145768e+01 9.528593e+01 6.627176e+01
    endloop
  endfacet
  facet normal 0.000000e+00 0.000000e+00 6.658947e-01
    outer loop
      vertex   -5.145768e+01 9.528593e+01 6.627176e+01
      vertex   -5.973458e+01 9.226772e+01 6.627176e+01
      vertex   -4.423532e+01 9.240942e+01 6.627176e+01
    endloop
  endfacet
  facet normal -0.000000e+00 0.000000e+00 3.775105e-01
    outer loop
      vertex   -5.145768e+01 9.528593e+01 6.627176e+01
      vertex   -4.423532e+01 9.240942e+01 6.627176e+01
      vertex   -5.022056e+01 9.529594e+01 6.627176e+01
    endloop
  endfacet
  facet normal -0.000000e+00 0.000000e+00 9.007233e-01
    outer loop
      vertex   -5.022056e+01 9.529594e+01 6.627176e+01
      vertex   -4.423532e+01 9.240942e+01 6.627176e+01
      vertex   -5.022056e+01 9.991593e+01 6.627176e+01
    endloop
  endfacet
  facet normal -0.000000e+00 0.000000e+00 8.920152e-01
    outer loop
      vertex   -5.022056e+01 9.991593e+01 6.627176e+01
      vertex   -4.423532e+01 9.240942e+01 6.627176e+01
      vertex   -4.441991e+01 1.126086e+02 6.627176e+01
    endloop
  endfacet
  facet normal 0.000000e+00 0.000000e+00 8.084767e-03
    outer loop
      vertex   -5.022056e+01 9.529594e+01 6.627176e+01
      vertex   -5.145768e+01 9.529594e+01 6.627176e+01
      vertex   -5.145768e+01 9.528593e+01 6.627176e+01
    endloop
  endfacet
  facet normal -1.000000e+00 -0.000000e+00 -0.000000e+00
    outer loop
      vertex   -5.145768e+01 9.529594e+01 6.627176e+01
      vertex   -5.145768e+01 9.529594e+01 6.023224e+01
      vertex   -5.145768e+01 9.528593e+01 6.627176e+01
    endloop
  endfacet
  facet normal -1.656113e-03 0.000000e+00 0.000000e+00
    outer loop
      vertex   -5.145768e+01 9.528593e+01 6.627176e+01
      vertex   -5.145768e+01 9.529594e+01 6.023224e+01
      vertex   -5.145768e+01 9.528593e+01 6.023224e+01
    endloop
  endfacet
  facet normal -0.000000e+00 1.000000e+00 0.000000e+00
    outer loop
      vertex   -5.145768e+01 9.529594e+01 6.627176e+01
      vertex   -5.022056e+01 9.529594e+01 6.627176e+01
      vertex   -5.145768e+01 9.529594e+01 6.023224e+01
    endloop
  endfacet
  facet normal 0.000000e+00 9.796588e-01 0.000000e+00
    outer loop
      vertex   -5.145768e+01 9.529594e+01 6.023224e+01
      vertex   -5.022056e+01 9.529594e+01 6.627176e+01
      vertex   -5.022056e+01 9.529594e+01 6.023224e+01
    endloop
  endfacet
  facet normal -1.000000e+00 -0.000000e+00 -0.000000e+00
    outer loop
      vertex   -5.022056e+01 9.991593e+01 6.627176e+01
      vertex   -5.022056e+01 9.991593e+01 6.023224e+01
      vertex   -5.022056e+01 9.529594e+01 6.627176e+01
    endloop
  endfacet
  facet normal -6.075780e-01 0.000000e+00 0.000000e+00
    outer loop
      vertex   -5.022056e+01 9.529594e+01 6.627176e+01
      vertex   -5.022056e+01 9.991593e+01 6.023224e+01
      vertex   -5.022056e+01 9.529594e+01 6.023224e+01
    endloop
  endfacet
  facet normal 9.142530e-03 -9.999582e-01 0.000000e+00
    outer loop
      vertex   -5.973458e+01 9.226772e+01 6.627176e+01
      vertex   -5.973458e+01 9.226772e+01 6.187176e+01
      vertex   -4.423532e+01 9.240942e+01 6.627176e+01
    endloop
  endfacet
  facet normal 8.795028e-03 -9.619529e-01 8.387596e-08
    outer loop
      vertex   -4.423532e+01 9.240942e+01 6.627176e+01
      vertex   -5.973458e+01 9.226772e+01 6.187176e+01
      vertex   -4.423528e+01 9.240942e+01 6.187176e+01
    endloop
  endfacet
  facet normal -9.999582e-01 -9.144714e-03 0.000000e+00
    outer loop
      vertex   -5.973458e+01 9.226772e+01 6.187176e+01
      vertex   -5.973458e+01 9.226772e+01 6.627176e+01
      vertex   -5.987570e+01 1.076990e+02 6.187176e+01
    endloop
  endfacet
  facet normal -8.536541e-01 -7.806737e-03 4.064700e-08
    outer loop
      vertex   -5.987570e+01 1.076990e+02 6.187176e+01
      vertex   -5.973458e+01 9.226772e+01 6.627176e+01
      vertex   -5.991930e+01 1.124669e+02 6.627176e+01
    endloop
  endfacet
  facet normal -7.097260e-01 -6.490472e-03 0.000000e+00
    outer loop
      vertex   -5.987570e+01 1.076990e+02 6.187176e+01
      vertex   -5.991930e+01 1.124669e+02 6.627176e+01
      vertex   -5.991930e+01 1.124669e+02 6.166243e+01
    endloop
  endfacet
  facet normal -0.000000e+00 -1.000000e+00 -0.000000e+00
    outer loop
      vertex   -4.949911e+01 9.460593e+01 6.187176e+01
      vertex   -4.951029e+01 9.460593e+01 6.187176e+01
      vertex   -4.949911e+01 9.460593e+01 5.968824e+01
    endloop
  endfacet
  facet normal 0.000000e+00 -9.999869e-01 0.000000e+00
    outer loop
      vertex   -4.949911e+01 9.460593e+01 5.968824e+01
      vertex   -4.951029e+01 9.460593e+01 6.187176e+01
      vertex   -5.155984e+01 9.460593e+01 5.968824e+01
    endloop
  endfacet
  facet normal 0.000000e+00 -6.843862e-01 0.000000e+00
    outer loop
      vertex   -5.155984e+01 9.460593e+01 5.968824e+01
      vertex   -4.951029e+01 9.460593e+01 6.187176e+01
      vertex   -5.155984e+01 9.460593e+01 6.443703e+01
    endloop
  endfacet
  facet normal 0.000000e+00 -5.270606e-01 0.000000e+00
    outer loop
      vertex   -5.155984e+01 9.460593e+01 6.443703e+01
      vertex   -4.951029e+01 9.460593e+01 6.187176e+01
      vertex   -4.951029e+01 9.460593e+01 6.370845e+01
    endloop
  endfacet
  facet normal 0.000000e+00 -6.172012e-01 0.000000e+00
    outer loop
      vertex   -5.155984e+01 9.460593e+01 6.443703e+01
      vertex   -4.951029e+01 9.460593e+01 6.370845e+01
      vertex   -4.949911e+01 9.460593e+01 6.512824e+01
    endloop
  endfacet
  facet normal 0.000000e+00 -7.869393e-03 -0.000000e+00
    outer loop
      vertex   -4.949911e+01 9.460593e+01 6.512824e+01
      vertex   -4.951029e+01 9.460593e+01 6.370845e+01
      vertex   -4.949911e+01 9.460593e+01 6.370845e+01
    endloop
  endfacet
  facet normal -0.000000e+00 -3.180079e-01 0.000000e+00
    outer loop
      vertex   -4.949911e+01 9.460593e+01 6.512824e+01
      vertex   -5.449911e+01 9.460593e+01 6.512824e+01
      vertex   -5.155984e+01 9.460593e+01 6.443703e+01
    endloop
  endfacet
  facet normal 0.000000e+00 -2.289179e-01 0.000000e+00
    outer loop
      vertex   -5.155984e+01 9.460593e+01 6.443703e+01
      vertex   -5.449911e+01 9.460593e+01 6.512824e+01
      vertex   -5.449911e+01 9.460593e+01 6.443703e+01
    endloop
  endfacet
  facet normal 1.000000e+00 0.000000e+00 -0.000000e+00
    outer loop
      vertex   -4.949911e+01 1.006059e+02 6.370845e+01
      vertex   -4.949911e+01 1.006059e+02 6.512824e+01
      vertex   -4.949911e+01 9.460593e+01 6.370845e+01
    endloop
  endfacet
  facet normal 9.731261e-01 0.000000e+00 0.000000e+00
    outer loop
      vertex   -4.949911e+01 9.460593e+01 6.370845e+01
      vertex   -4.949911e+01 1.006059e+02 6.512824e+01
      vertex   -4.949911e+01 9.460593e+01 6.512824e+01
    endloop
  endfacet
  facet normal 1.000000e+00 -0.000000e+00 0.000000e+00
    outer loop
      vertex   -4.949911e+01 9.460593e+01 6.187176e+01
      vertex   -4.949911e+01 9.460593e+01 5.968824e+01
      vertex   -4.949911e+01 1.006059e+02 6.187176e+01
    endloop
  endfacet
  facet normal 9.397081e-01 0.000000e+00 0.000000e+00
    outer loop
      vertex   -4.949911e+01 1.006059e+02 6.187176e+01
      vertex   -4.949911e+01 9.460593e+01 5.968824e+01
      vertex   -4.949911e+01 1.006059e+02 5.968824e+01
    endloop
  endfacet
  facet normal 0.000000e+00 0.000000e+00 -3.303224e-02
    outer loop
      vertex   -5.449911e+01 9.460593e+01 6.512824e+01
      vertex   -5.471030e+01 1.009956e+02 6.512824e+01
      vertex   -5.449911e+01 1.006059e+02 6.512824e+01
    endloop
  endfacet
  facet normal 0.000000e+00 0.000000e+00 -9.124212e-01
    outer loop
      vertex   -5.449911e+01 1.006059e+02 6.512824e+01
      vertex   -5.471030e+01 1.009956e+02 6.512824e+01
      vertex   -4.931030e+01 1.009956e+02 6.512824e+01
    endloop
  endfacet
  facet normal 0.000000e+00 0.000000e+00 -7.489467e-02
    outer loop
      vertex   -5.449911e+01 1.006059e+02 6.512824e+01
      vertex   -4.931030e+01 1.009956e+02 6.512824e+01
      vertex   -4.949911e+01 1.006059e+02 6.512824e+01
    endloop
  endfacet
  facet normal 0.000000e+00 0.000000e+00 -4.360301e-01
    outer loop
      vertex   -4.949911e+01 1.006059e+02 6.512824e+01
      vertex   -4.931030e+01 1.009956e+02 6.512824e+01
      vertex   -4.949911e+01 9.460593e+01 6.512824e+01
    endloop
  endfacet
  facet normal 0.000000e+00 0.000000e+00 -3.745787e-01
    outer loop
      vertex   -4.949911e+01 9.460593e+01 6.512824e+01
      vertex   -4.931030e+01 1.009956e+02 6.512824e+01
      vertex   -4.931030e+01 9.409564e+01 6.512824e+01
    endloop
  endfacet
  facet normal -0.000000e+00 -0.000000e+00 -9.378548e-01
    outer loop
      vertex   -4.949911e+01 9.460593e+01 6.512824e+01
      vertex   -4.931030e+01 9.409564e+01 6.512824e+01
      vertex   -5.449911e+01 9.460593e+01 6.512824e+01
    endloop
  endfacet
  facet normal 0.000000e+00 -0.000000e+00 -9.569895e-01
    outer loop
      vertex   -5.449911e+01 9.460593e+01 6.512824e+01
      vertex   -4.931030e+01 9.409564e+01 6.512824e+01
      vertex   -5.471030e+01 9.409564e+01 6.512824e+01
    endloop
  endfacet
  facet normal -0.000000e+00 0.000000e+00 -4.127056e-01
    outer loop
      vertex   -5.449911e+01 9.460593e+01 6.512824e+01
      vertex   -5.471030e+01 9.409564e+01 6.512824e+01
      vertex   -5.471030e+01 1.009956e+02 6.512824e+01
    endloop
  endfacet
  facet normal 0.000000e+00 1.000000e+00 0.000000e+00
    outer loop
      vertex   -5.155984e+01 9.830742e+01 6.023224e+01
      vertex   -5.155984e+01 9.830742e+01 5.968824e+01
      vertex   -5.366908e+01 9.830742e+01 6.023224e+01
    endloop
  endfacet
  facet normal 0.000000e+00 7.396627e-01 0.000000e+00
    outer loop
      vertex   -5.366908e+01 9.830742e+01 6.023224e+01
      vertex   -5.155984e+01 9.830742e+01 5.968824e+01
      vertex   -5.449911e+01 9.830742e+01 5.968824e+01
    endloop
  endfacet
  facet normal 0.000000e+00 7.325490e-01 0.000000e+00
    outer loop
      vertex   -5.366908e+01 9.830742e+01 6.023224e+01
      vertex   -5.449911e+01 9.830742e+01 5.968824e+01
      vertex   -5.449911e+01 9.830742e+01 6.043704e+01
    endloop
  endfacet
  facet normal -0.000000e+00 2.395486e-01 0.000000e+00
    outer loop
      vertex   -5.449911e+01 9.830742e+01 6.043704e+01
      vertex   -5.366908e+01 9.830742e+01 6.043704e+01
      vertex   -5.366908e+01 9.830742e+01 6.023224e+01
    endloop
  endfacet
  facet normal 0.000000e+00 0.000000e+00 9.663576e-01
    outer loop
      vertex   -5.366908e+01 9.830742e+01 6.043704e+01
      vertex   -5.449911e+01 9.830742e+01 6.043704e+01
      vertex   -5.372520e+01 9.809657e+01 6.043704e+01
    endloop
  endfacet
  facet normal 0.000000e+00 0.000000e+00 9.950113e-01
    outer loop
      vertex   -5.372520e+01 9.809657e+01 6.043704e+01
      vertex   -5.449911e+01 9.830742e+01 6.043704e+01
      vertex   -5.376126e+01 9.788139e+01 6.043704e+01
    endloop
  endfacet
  facet normal 0.000000e+00 0.000000e+00 8.997275e-01
    outer loop
      vertex   -5.376126e+01 9.788139e+01 6.043704e+01
      vertex   -5.449911e+01 9.830742e+01 6.043704e+01
      vertex   -5.377695e+01 9.766378e+01 6.043704e+01
    endloop
  endfacet
  facet normal 0.000000e+00 0.000000e+00 9.996251e-01
    outer loop
      vertex   -5.377695e+01 9.766378e+01 6.043704e+01
      vertex   -5.449911e+01 9.830742e+01 6.043704e+01
      vertex   -5.449911e+01 9.680742e+01 6.043704e+01
    endloop
  endfacet
  facet normal 0.000000e+00 0.000000e+00 6.614026e-01
    outer loop
      vertex   -5.377695e+01 9.766378e+01 6.043704e+01
      vertex   -5.449911e+01 9.680742e+01 6.043704e+01
      vertex   -5.377213e+01 9.744566e+01 6.043704e+01
    endloop
  endfacet
  facet normal 0.000000e+00 0.000000e+00 8.228967e-01
    outer loop
      vertex   -5.377213e+01 9.744566e+01 6.043704e+01
      vertex   -5.449911e+01 9.680742e+01 6.043704e+01
      vertex   -5.374684e+01 9.722894e+01 6.043704e+01
    endloop
  endfacet
  facet normal 0.000000e+00 0.000000e+00 9.551933e-01
    outer loop
      vertex   -5.374684e+01 9.722894e+01 6.043704e+01
      vertex   -5.449911e+01 9.680742e+01 6.043704e+01
      vertex   -5.370131e+01 9.701557e+01 6.043704e+01
    endloop
  endfacet
  facet normal 0.000000e+00 0.000000e+00 9.987937e-01
    outer loop
      vertex   -5.370131e+01 9.701557e+01 6.043704e+01
      vertex   -5.449911e+01 9.680742e+01 6.043704e+01
      vertex   -5.363593e+01 9.680742e+01 6.043704e+01
    endloop
  endfacet
  facet normal -1.000000e+00 -0.000000e+00 -0.000000e+00
    outer loop
      vertex   -5.449911e+01 9.830742e+01 6.043704e+01
      vertex   -5.449911e+01 9.830742e+01 5.968824e+01
      vertex   -5.449911e+01 9.680742e+01 6.043704e+01
    endloop
  endfacet
  facet normal -8.947146e-01 0.000000e+00 0.000000e+00
    outer loop
      vertex   -5.449911e+01 9.680742e+01 6.043704e+01
      vertex   -5.449911e+01 9.830742e+01 5.968824e+01
      vertex   -5.449911e+01 9.680742e+01 5.968824e+01
    endloop
  endfacet
  facet normal 0.000000e+00 0.000000e+00 -1.000000e+00
    outer loop
      vertex   -5.449911e+01 9.830742e+01 5.968824e+01
      vertex   -5.155984e+01 9.830742e+01 5.968824e+01
      vertex   -5.449911e+01 9.680742e+01 5.968824e+01
    endloop
  endfacet
  facet normal 0.000000e+00 0.000000e+00 -4.545590e-01
    outer loop
      vertex   -5.449911e+01 9.680742e+01 5.968824e+01
      vertex   -5.155984e+01 9.830742e+01 5.968824e+01
      vertex   -5.155984e+01 9.680742e+01 5.968824e+01
    endloop
  endfacet
  facet normal 0.000000e+00 0.000000e+00 -6.833815e-01
    outer loop
      vertex   -5.155984e+01 9.680742e+01 5.968824e+01
      vertex   -5.155984e+01 9.830742e+01 5.968824e+01
      vertex   -4.949911e+01 9.460593e+01 5.968824e+01
    endloop
  endfacet
  facet normal 0.000000e+00 0.000000e+00 -6.833815e-01
    outer loop
      vertex   -5.155984e+01 9.680742e+01 5.968824e+01
      vertex   -4.949911e+01 9.460593e+01 5.968824e+01
      vertex   -5.155984e+01 9.460593e+01 5.968824e+01
    endloop
  endfacet
  facet normal 0.000000e+00 0.000000e+00 -1.000000e+00
    outer loop
      vertex   -5.155984e+01 1.006059e+02 5.968824e+01
      vertex   -4.949911e+01 1.006059e+02 5.968824e+01
      vertex   -5.155984e+01 9.830742e+01 5.968824e+01
    endloop
  endfacet
  facet normal 0.000000e+00 0.000000e+00 -9.454253e-01
    outer loop
      vertex   -5.155984e+01 9.830742e+01 5.968824e+01
      vertex   -4.949911e+01 1.006059e+02 5.968824e+01
      vertex   -4.949911e+01 9.460593e+01 5.968824e+01
    endloop
  endfacet
  facet normal 4.894401e-02 -9.964653e-01 -1.502936e-03
    outer loop
      vertex   -5.168508e+01 9.991476e+01 6.627176e+01
      vertex   -5.155984e+01 9.992368e+01 6.443703e+01
      vertex   -5.145768e+01 9.992593e+01 6.627176e+01
    endloop
  endfacet
  facet normal 1.183168e-03 -4.996353e-02 -4.590700e-06
    outer loop
      vertex   -5.145768e+01 9.992593e+01 6.627176e+01
      vertex   -5.155984e+01 9.992368e+01 6.443703e+01
      vertex   -5.149174e+01 9.992568e+01 6.023224e+01
    endloop
  endfacet
  facet normal 4.168645e-05 -5.640303e-03 0.000000e+00
    outer loop
      vertex   -5.145768e+01 9.992593e+01 6.627176e+01
      vertex   -5.149174e+01 9.992568e+01 6.023224e+01
      vertex   -5.145768e+01 9.992593e+01 6.023224e+01
    endloop
  endfacet
  facet normal 9.293504e-02 -9.933286e-01 1.515188e-03
    outer loop
      vertex   -5.155984e+01 9.992368e+01 6.443703e+01
      vertex   -5.168508e+01 9.991476e+01 6.627176e+01
      vertex   -5.178727e+01 9.990240e+01 6.443703e+01
    endloop
  endfacet
  facet normal 1.813883e-02 -1.222724e-01 -1.866226e-04
    outer loop
      vertex   -5.178727e+01 9.990240e+01 6.443703e+01
      vertex   -5.168508e+01 9.991476e+01 6.627176e+01
      vertex   -5.191029e+01 9.988136e+01 6.627176e+01
    endloop
  endfacet
  facet normal 1.902044e-01 -9.793959e-01 1.516552e-03
    outer loop
      vertex   -5.178727e+01 9.990240e+01 6.443703e+01
      vertex   -5.191029e+01 9.988136e+01 6.627176e+01
      vertex   -5.201151e+01 9.985886e+01 6.443703e+01
    endloop
  endfacet
  facet normal 3.003546e-02 -1.199078e-01 -1.866565e-04
    outer loop
      vertex   -5.201151e+01 9.985886e+01 6.443703e+01
      vertex   -5.191029e+01 9.988136e+01 6.627176e+01
      vertex   -5.213114e+01 9.982603e+01 6.627176e+01
    endloop
  endfacet
  facet normal 2.855849e-01 -9.559763e-01 1.519294e-03
    outer loop
      vertex   -5.201151e+01 9.985886e+01 6.443703e+01
      vertex   -5.213114e+01 9.982603e+01 6.627176e+01
      vertex   -5.223038e+01 9.979347e+01 6.443703e+01
    endloop
  endfacet
  facet normal 4.164223e-02 -1.163853e-01 -1.868285e-04
    outer loop
      vertex   -5.223038e+01 9.979347e+01 6.443703e+01
      vertex   -5.213114e+01 9.982603e+01 6.627176e+01
      vertex   -5.234550e+01 9.974934e+01 6.627176e+01
    endloop
  endfacet
  facet normal 3.782012e-01 -9.232921e-01 1.520378e-03
    outer loop
      vertex   -5.223038e+01 9.979347e+01 6.443703e+01
      vertex   -5.234550e+01 9.974934e+01 6.627176e+01
      vertex   -5.244176e+01 9.970689e+01 6.443703e+01
    endloop
  endfacet
  facet normal 5.285141e-02 -1.117443e-01 -1.873508e-04
    outer loop
      vertex   -5.244176e+01 9.970689e+01 6.443703e+01
      vertex   -5.234550e+01 9.974934e+01 6.627176e+01
      vertex   -5.255132e+01 9.965199e+01 6.627176e+01
    endloop
  endfacet
  facet normal 4.672158e-01 -8.816282e-01 1.521550e-03
    outer loop
      vertex   -5.244176e+01 9.970689e+01 6.443703e+01
      vertex   -5.255132e+01 9.965199e+01 6.627176e+01
      vertex   -5.264360e+01 9.959992e+01 6.443703e+01
    endloop
  endfacet
  facet normal 6.355117e-02 -1.060263e-01 -1.873477e-04
    outer loop
      vertex   -5.264360e+01 9.959992e+01 6.443703e+01
      vertex   -5.255132e+01 9.965199e+01 6.627176e+01
      vertex   -5.274660e+01 9.953494e+01 6.627176e+01
    endloop
  endfacet
  facet normal 5.516505e-01 -8.314416e-01 1.522655e-03
    outer loop
      vertex   -5.264360e+01 9.959992e+01 6.443703e+01
      vertex   -5.274660e+01 9.953494e+01 6.627176e+01
      vertex   -5.283394e+01 9.947363e+01 6.443703e+01
    endloop
  endfacet
  facet normal 7.363790e-02 -9.928918e-02 -1.876193e-04
    outer loop
      vertex   -5.283394e+01 9.947363e+01 6.443703e+01
      vertex   -5.274660e+01 9.953494e+01 6.627176e+01
      vertex   -5.292947e+01 9.939931e+01 6.627176e+01
    endloop
  endfacet
  facet normal 6.307576e-01 -7.731829e-01 1.523846e-03
    outer loop
      vertex   -5.283394e+01 9.947363e+01 6.443703e+01
      vertex   -5.292947e+01 9.939931e+01 6.627176e+01
      vertex   -5.301094e+01 9.932924e+01 6.443703e+01
    endloop
  endfacet
  facet normal 8.301223e-02 -9.159099e-02 -1.877128e-04
    outer loop
      vertex   -5.301094e+01 9.932924e+01 6.443703e+01
      vertex   -5.292947e+01 9.939931e+01 6.627176e+01
      vertex   -5.309816e+01 9.924642e+01 6.627176e+01
    endloop
  endfacet
  facet normal 7.037567e-01 -7.074229e-01 1.526008e-03
    outer loop
      vertex   -5.301094e+01 9.932924e+01 6.443703e+01
      vertex   -5.309816e+01 9.924642e+01 6.627176e+01
      vertex   -5.317288e+01 9.916814e+01 6.443703e+01
    endloop
  endfacet
  facet normal 9.159122e-02 -8.301452e-02 -1.877110e-04
    outer loop
      vertex   -5.317288e+01 9.916814e+01 6.443703e+01
      vertex   -5.309816e+01 9.924642e+01 6.627176e+01
      vertex   -5.325106e+01 9.907773e+01 6.627176e+01
    endloop
  endfacet
  facet normal 7.699269e-01 -6.348122e-01 1.527359e-03
    outer loop
      vertex   -5.317288e+01 9.916814e+01 6.443703e+01
      vertex   -5.325106e+01 9.907773e+01 6.627176e+01
      vertex   -5.331820e+01 9.899189e+01 6.443703e+01
    endloop
  endfacet
  facet normal 9.928792e-02 -7.363643e-02 -1.879588e-04
    outer loop
      vertex   -5.331820e+01 9.899189e+01 6.443703e+01
      vertex   -5.325106e+01 9.907773e+01 6.627176e+01
      vertex   -5.338668e+01 9.889486e+01 6.627176e+01
    endloop
  endfacet
  facet normal 8.286499e-01 -5.560274e-01 1.527083e-03
    outer loop
      vertex   -5.331820e+01 9.899189e+01 6.443703e+01
      vertex   -5.338668e+01 9.889486e+01 6.627176e+01
      vertex   -5.344547e+01 9.880221e+01 6.443703e+01
    endloop
  endfacet
  facet normal 1.060277e-01 -6.355201e-02 -1.880439e-04
    outer loop
      vertex   -5.344547e+01 9.880221e+01 6.443703e+01
      vertex   -5.338668e+01 9.889486e+01 6.627176e+01
      vertex   -5.350373e+01 9.869958e+01 6.627176e+01
    endloop
  endfacet
  facet normal 8.793388e-01 -4.718505e-01 1.529177e-03
    outer loop
      vertex   -5.344547e+01 9.880221e+01 6.443703e+01
      vertex   -5.350373e+01 9.869958e+01 6.627176e+01
      vertex   -5.355348e+01 9.860093e+01 6.443703e+01
    endloop
  endfacet
  facet normal 1.117485e-01 -5.285240e-02 -1.880345e-04
    outer loop
      vertex   -5.355348e+01 9.860093e+01 6.443703e+01
      vertex   -5.350373e+01 9.869958e+01 6.627176e+01
      vertex   -5.360108e+01 9.849376e+01 6.627176e+01
    endloop
  endfacet
  facet normal 9.215007e-01 -3.831031e-01 1.529408e-03
    outer loop
      vertex   -5.355348e+01 9.860093e+01 6.443703e+01
      vertex   -5.360108e+01 9.849376e+01 6.627176e+01
      vertex   -5.364117e+01 9.839001e+01 6.443703e+01
    endloop
  endfacet
  facet normal 1.163881e-01 -4.164323e-02 -1.881858e-04
    outer loop
      vertex   -5.364117e+01 9.839001e+01 6.443703e+01
      vertex   -5.360108e+01 9.849376e+01 6.627176e+01
      vertex   -5.367778e+01 9.827940e+01 6.627176e+01
    endloop
  endfacet
  facet normal 9.547315e-01 -2.906393e-01 1.528564e-03
    outer loop
      vertex   -5.364117e+01 9.839001e+01 6.443703e+01
      vertex   -5.367778e+01 9.827940e+01 6.627176e+01
      vertex   -5.370769e+01 9.817148e+01 6.443703e+01
    endloop
  endfacet
  facet normal 1.199134e-01 -3.003633e-02 -1.884405e-04
    outer loop
      vertex   -5.370769e+01 9.817148e+01 6.443703e+01
      vertex   -5.367778e+01 9.827940e+01 6.627176e+01
      vertex   -5.373310e+01 9.805854e+01 6.627176e+01
    endloop
  endfacet
  facet normal 9.787141e-01 -1.953295e-01 1.528834e-03
    outer loop
      vertex   -5.370769e+01 9.817148e+01 6.443703e+01
      vertex   -5.373310e+01 9.805854e+01 6.627176e+01
      vertex   -5.375240e+01 9.794746e+01 6.443703e+01
    endloop
  endfacet
  facet normal 1.222746e-01 -1.813946e-02 -1.882161e-04
    outer loop
      vertex   -5.375240e+01 9.794746e+01 6.443703e+01
      vertex   -5.373310e+01 9.805854e+01 6.627176e+01
      vertex   -5.376651e+01 9.783334e+01 6.627176e+01
    endloop
  endfacet
  facet normal 9.932033e-01 -9.815361e-02 1.530902e-03
    outer loop
      vertex   -5.375240e+01 9.794746e+01 6.443703e+01
      vertex   -5.376651e+01 9.783334e+01 6.627176e+01
      vertex   -5.377486e+01 9.772015e+01 6.443703e+01
    endloop
  endfacet
  facet normal 1.234677e-01 -6.064438e-03 -1.883176e-04
    outer loop
      vertex   -5.377486e+01 9.772015e+01 6.443703e+01
      vertex   -5.376651e+01 9.783334e+01 6.627176e+01
      vertex   -5.377768e+01 9.760593e+01 6.627176e+01
    endloop
  endfacet
  facet normal 9.980669e-01 0.000000e+00 1.529383e-03
    outer loop
      vertex   -5.377486e+01 9.772015e+01 6.443703e+01
      vertex   -5.377768e+01 9.760593e+01 6.627176e+01
      vertex   -5.377486e+01 9.749172e+01 6.443703e+01
    endloop
  endfacet
  facet normal 1.234677e-01 6.064438e-03 -1.883176e-04
    outer loop
      vertex   -5.377486e+01 9.749172e+01 6.443703e+01
      vertex   -5.377768e+01 9.760593e+01 6.627176e+01
      vertex   -5.376651e+01 9.737853e+01 6.627176e+01
    endloop
  endfacet
  facet normal 9.932536e-01 9.815859e-02 1.530980e-03
    outer loop
      vertex   -5.377486e+01 9.749172e+01 6.443703e+01
      vertex   -5.376651e+01 9.737853e+01 6.627176e+01
      vertex   -5.375240e+01 9.726440e+01 6.443703e+01
    endloop
  endfacet
  facet normal 1.222746e-01 1.813946e-02 -1.882161e-04
    outer loop
      vertex   -5.375240e+01 9.726440e+01 6.443703e+01
      vertex   -5.376651e+01 9.737853e+01 6.627176e+01
      vertex   -5.373310e+01 9.715333e+01 6.627176e+01
    endloop
  endfacet
  facet normal 9.788140e-01 1.953494e-01 1.528990e-03
    outer loop
      vertex   -5.375240e+01 9.726440e+01 6.443703e+01
      vertex   -5.373310e+01 9.715333e+01 6.627176e+01
      vertex   -5.370769e+01 9.704039e+01 6.443703e+01
    endloop
  endfacet
  facet normal 1.199134e-01 3.003633e-02 -1.884405e-04
    outer loop
      vertex   -5.370769e+01 9.704039e+01 6.443703e+01
      vertex   -5.373310e+01 9.715333e+01 6.627176e+01
      vertex   -5.367778e+01 9.693247e+01 6.627176e+01
    endloop
  endfacet
  facet normal 9.548748e-01 2.906930e-01 1.529390e-03
    outer loop
      vertex   -5.370769e+01 9.704039e+01 6.443703e+01
      vertex   -5.367778e+01 9.693247e+01 6.627176e+01
      vertex   -5.364117e+01 9.682187e+01 6.443703e+01
    endloop
  endfacet
  facet normal 1.163881e-01 4.164323e-02 -1.880127e-04
    outer loop
      vertex   -5.364117e+01 9.682187e+01 6.443703e+01
      vertex   -5.367778e+01 9.693247e+01 6.627176e+01
      vertex   -5.360108e+01 9.671811e+01 6.627176e+01
    endloop
  endfacet
  facet normal 9.216935e-01 3.831694e-01 1.530538e-03
    outer loop
      vertex   -5.364117e+01 9.682187e+01 6.443703e+01
      vertex   -5.360108e+01 9.671811e+01 6.627176e+01
      vertex   -5.355348e+01 9.661094e+01 6.443703e+01
    endloop
  endfacet
  facet normal 1.117485e-01 5.285240e-02 -1.880345e-04
    outer loop
      vertex   -5.355348e+01 9.661094e+01 6.443703e+01
      vertex   -5.360108e+01 9.671811e+01 6.627176e+01
      vertex   -5.350373e+01 9.651229e+01 6.627176e+01
    endloop
  endfacet
  facet normal 8.795628e-01 4.719707e-01 1.529566e-03
    outer loop
      vertex   -5.355348e+01 9.661094e+01 6.443703e+01
      vertex   -5.350373e+01 9.651229e+01 6.627176e+01
      vertex   -5.344547e+01 9.640966e+01 6.443703e+01
    endloop
  endfacet
  facet normal 1.060277e-01 6.355201e-02 -1.880439e-04
    outer loop
      vertex   -5.344547e+01 9.640966e+01 6.443703e+01
      vertex   -5.350373e+01 9.651229e+01 6.627176e+01
      vertex   -5.338668e+01 9.631701e+01 6.627176e+01
    endloop
  endfacet
  facet normal 8.289032e-01 5.561973e-01 1.527549e-03
    outer loop
      vertex   -5.344547e+01 9.640966e+01 6.443703e+01
      vertex   -5.338668e+01 9.631701e+01 6.627176e+01
      vertex   -5.331820e+01 9.621998e+01 6.443703e+01
    endloop
  endfacet
  facet normal 9.928792e-02 7.363643e-02 -1.879588e-04
    outer loop
      vertex   -5.331820e+01 9.621998e+01 6.443703e+01
      vertex   -5.338668e+01 9.631701e+01 6.627176e+01
      vertex   -5.325106e+01 9.613414e+01 6.627176e+01
    endloop
  endfacet
  facet normal 7.702016e-01 6.350387e-01 1.527904e-03
    outer loop
      vertex   -5.331820e+01 9.621998e+01 6.443703e+01
      vertex   -5.325106e+01 9.613414e+01 6.627176e+01
      vertex   -5.317288e+01 9.604373e+01 6.443703e+01
    endloop
  endfacet
  facet normal 9.159122e-02 8.301452e-02 -1.877110e-04
    outer loop
      vertex   -5.317288e+01 9.604373e+01 6.443703e+01
      vertex   -5.325106e+01 9.613414e+01 6.627176e+01
      vertex   -5.309816e+01 9.596545e+01 6.627176e+01
    endloop
  endfacet
  facet normal 7.040438e-01 7.077114e-01 1.526631e-03
    outer loop
      vertex   -5.317288e+01 9.604373e+01 6.443703e+01
      vertex   -5.309816e+01 9.596545e+01 6.627176e+01
      vertex   -5.301094e+01 9.588263e+01 6.443703e+01
    endloop
  endfacet
  facet normal 8.301223e-02 9.159099e-02 -1.877128e-04
    outer loop
      vertex   -5.301094e+01 9.588263e+01 6.443703e+01
      vertex   -5.309816e+01 9.596545e+01 6.627176e+01
      vertex   -5.292947e+01 9.581255e+01 6.627176e+01
    endloop
  endfacet
  facet normal 6.310471e-01 7.735379e-01 1.524545e-03
    outer loop
      vertex   -5.301094e+01 9.588263e+01 6.443703e+01
      vertex   -5.292947e+01 9.581255e+01 6.627176e+01
      vertex   -5.283394e+01 9.573824e+01 6.443703e+01
    endloop
  endfacet
  facet normal 7.363790e-02 9.928918e-02 -1.876193e-04
    outer loop
      vertex   -5.283394e+01 9.573824e+01 6.443703e+01
      vertex   -5.292947e+01 9.581255e+01 6.627176e+01
      vertex   -5.274660e+01 9.567693e+01 6.627176e+01
    endloop
  endfacet
  facet normal 5.519317e-01 8.318654e-01 1.523431e-03
    outer loop
      vertex   -5.283394e+01 9.573824e+01 6.443703e+01
      vertex   -5.274660e+01 9.567693e+01 6.627176e+01
      vertex   -5.264360e+01 9.561195e+01 6.443703e+01
    endloop
  endfacet
  facet normal 6.355117e-02 1.060263e-01 -1.873477e-04
    outer loop
      vertex   -5.264360e+01 9.561195e+01 6.443703e+01
      vertex   -5.274660e+01 9.567693e+01 6.627176e+01
      vertex   -5.255132e+01 9.555988e+01 6.627176e+01
    endloop
  endfacet
  facet normal 4.674518e-01 8.821364e-01 1.524104e-03
    outer loop
      vertex   -5.264360e+01 9.561195e+01 6.443703e+01
      vertex   -5.255132e+01 9.555988e+01 6.627176e+01
      vertex   -5.244176e+01 9.550499e+01 6.443703e+01
    endloop
  endfacet
  facet normal 5.285141e-02 1.117444e-01 -1.868861e-04
    outer loop
      vertex   -5.244176e+01 9.550499e+01 6.443703e+01
      vertex   -5.255132e+01 9.555988e+01 6.627176e+01
      vertex   -5.234550e+01 9.546253e+01 6.627176e+01
    endloop
  endfacet
  facet normal 3.784611e-01 9.238452e-01 1.523381e-03
    outer loop
      vertex   -5.244176e+01 9.550499e+01 6.443703e+01
      vertex   -5.234550e+01 9.546253e+01 6.627176e+01
      vertex   -5.223038e+01 9.541840e+01 6.443703e+01
    endloop
  endfacet
  facet normal 4.164223e-02 1.163853e-01 -1.868285e-04
    outer loop
      vertex   -5.223038e+01 9.541840e+01 6.443703e+01
      vertex   -5.234550e+01 9.546253e+01 6.627176e+01
      vertex   -5.213114e+01 9.538583e+01 6.627176e+01
    endloop
  endfacet
  facet normal 2.857742e-01 9.566101e-01 1.520301e-03
    outer loop
      vertex   -5.223038e+01 9.541840e+01 6.443703e+01
      vertex   -5.213114e+01 9.538583e+01 6.627176e+01
      vertex   -5.201151e+01 9.535301e+01 6.443703e+01
    endloop
  endfacet
  facet normal 3.003546e-02 1.199078e-01 -1.866565e-04
    outer loop
      vertex   -5.201151e+01 9.535301e+01 6.443703e+01
      vertex   -5.213114e+01 9.538583e+01 6.627176e+01
      vertex   -5.191029e+01 9.533051e+01 6.627176e+01
    endloop
  endfacet
  facet normal 1.903402e-01 9.800952e-01 1.517635e-03
    outer loop
      vertex   -5.201151e+01 9.535301e+01 6.443703e+01
      vertex   -5.191029e+01 9.533051e+01 6.627176e+01
      vertex   -5.178727e+01 9.530946e+01 6.443703e+01
    endloop
  endfacet
  facet normal 1.813883e-02 1.222724e-01 -1.866226e-04
    outer loop
      vertex   -5.178727e+01 9.530946e+01 6.443703e+01
      vertex   -5.191029e+01 9.533051e+01 6.627176e+01
      vertex   -5.168508e+01 9.529710e+01 6.627176e+01
    endloop
  endfacet
  facet normal 9.300613e-02 9.940885e-01 1.516347e-03
    outer loop
      vertex   -5.178727e+01 9.530946e+01 6.443703e+01
      vertex   -5.168508e+01 9.529710e+01 6.627176e+01
      vertex   -5.155984e+01 9.528819e+01 6.443703e+01
    endloop
  endfacet
  facet normal 6.064195e-03 1.234627e-01 -1.862147e-04
    outer loop
      vertex   -5.155984e+01 9.528819e+01 6.443703e+01
      vertex   -5.168508e+01 9.529710e+01 6.627176e+01
      vertex   -5.145768e+01 9.528593e+01 6.627176e+01
    endloop
  endfacet
  facet normal 1.699238e-03 7.175641e-02 -6.593051e-06
    outer loop
      vertex   -5.155984e+01 9.528819e+01 6.443703e+01
      vertex   -5.145768e+01 9.528593e+01 6.627176e+01
      vertex   -5.149174e+01 9.528619e+01 6.023224e+01
    endloop
  endfacet
  facet normal 7.390498e-03 9.999568e-01 6.776264e-21
    outer loop
      vertex   -5.149174e+01 9.528619e+01 6.023224e+01
      vertex   -5.145768e+01 9.528593e+01 6.627176e+01
      vertex   -5.145768e+01 9.528593e+01 6.023224e+01
    endloop
  endfacet
  facet normal 2.194769e-02 9.996279e-01 -1.197690e-04
    outer loop
      vertex   -5.149174e+01 9.528619e+01 6.023224e+01
      vertex   -5.152579e+01 9.528693e+01 6.023224e+01
      vertex   -5.155984e+01 9.528819e+01 6.443703e+01
    endloop
  endfacet
  facet normal 2.975604e-04 8.095820e-03 0.000000e+00
    outer loop
      vertex   -5.155984e+01 9.528819e+01 6.443703e+01
      vertex   -5.152579e+01 9.528693e+01 6.023224e+01
      vertex   -5.155984e+01 9.528819e+01 6.023224e+01
    endloop
  endfacet
  facet normal 3.673002e-02 -9.993252e-01 0.000000e+00
    outer loop
      vertex   -5.155984e+01 9.992368e+01 6.023224e+01
      vertex   -5.152579e+01 9.992493e+01 6.023224e+01
      vertex   -5.155984e+01 9.992368e+01 6.443703e+01
    endloop
  endfacet
  facet normal 1.777872e-04 -8.097479e-03 -9.701882e-07
    outer loop
      vertex   -5.155984e+01 9.992368e+01 6.443703e+01
      vertex   -5.152579e+01 9.992493e+01 6.023224e+01
      vertex   -5.149174e+01 9.992568e+01 6.023224e+01
    endloop
  endfacet
  facet normal 0.000000e+00 1.000000e+00 0.000000e+00
    outer loop
      vertex   -4.949911e+01 1.006059e+02 6.187176e+01
      vertex   -4.949911e+01 1.006059e+02 5.968824e+01
      vertex   -4.951029e+01 1.006059e+02 6.187176e+01
    endloop
  endfacet
  facet normal 0.000000e+00 6.881081e-01 0.000000e+00
    outer loop
      vertex   -4.951029e+01 1.006059e+02 6.187176e+01
      vertex   -4.949911e+01 1.006059e+02 5.968824e+01
      vertex   -5.155984e+01 1.006059e+02 5.968824e+01
    endloop
  endfacet
  facet normal 0.000000e+00 9.898030e-01 0.000000e+00
    outer loop
      vertex   -4.951029e+01 1.006059e+02 6.187176e+01
      vertex   -5.155984e+01 1.006059e+02 5.968824e+01
      vertex   -5.155984e+01 1.006059e+02 6.443703e+01
    endloop
  endfacet
  facet normal 0.000000e+00 1.000000e+00 0.000000e+00
    outer loop
      vertex   -5.449911e+01 1.006059e+02 6.443703e+01
      vertex   -5.449911e+01 1.006059e+02 6.512824e+01
      vertex   -5.155984e+01 1.006059e+02 6.443703e+01
    endloop
  endfacet
  facet normal 0.000000e+00 5.265978e-01 -0.000000e+00
    outer loop
      vertex   -5.155984e+01 1.006059e+02 6.443703e+01
      vertex   -5.449911e+01 1.006059e+02 6.512824e+01
      vertex   -4.949911e+01 1.006059e+02 6.512824e+01
    endloop
  endfacet
  facet normal -0.000000e+00 6.172012e-01 0.000000e+00
    outer loop
      vertex   -5.155984e+01 1.006059e+02 6.443703e+01
      vertex   -4.949911e+01 1.006059e+02 6.512824e+01
      vertex   -4.951029e+01 1.006059e+02 6.370845e+01
    endloop
  endfacet
  facet normal 0.000000e+00 9.999691e-01 0.000000e+00
    outer loop
      vertex   -4.951029e+01 1.006059e+02 6.370845e+01
      vertex   -4.949911e+01 1.006059e+02 6.512824e+01
      vertex   -4.949911e+01 1.006059e+02 6.370845e+01
    endloop
  endfacet
  facet normal 0.000000e+00 9.422356e-01 0.000000e+00
    outer loop
      vertex   -4.951029e+01 1.006059e+02 6.370845e+01
      vertex   -4.951029e+01 1.006059e+02 6.187176e+01
      vertex   -5.155984e+01 1.006059e+02 6.443703e+01
    endloop
  endfacet
  facet normal -1.000000e+00 0.000000e+00 0.000000e+00
    outer loop
      vertex   -5.155984e+01 9.992368e+01 6.443703e+01
      vertex   -5.155984e+01 1.006059e+02 6.443703e+01
      vertex   -5.155984e+01 9.992368e+01 6.023224e+01
    endloop
  endfacet
  facet normal -8.716319e-01 0.000000e+00 0.000000e+00
    outer loop
      vertex   -5.155984e+01 9.992368e+01 6.023224e+01
      vertex   -5.155984e+01 1.006059e+02 6.443703e+01
      vertex   -5.155984e+01 1.006059e+02 5.968824e+01
    endloop
  endfacet
  facet normal -8.402781e-01 0.000000e+00 -0.000000e+00
    outer loop
      vertex   -5.155984e+01 9.992368e+01 6.023224e+01
      vertex   -5.155984e+01 1.006059e+02 5.968824e+01
      vertex   -5.155984e+01 9.830742e+01 5.968824e+01
    endloop
  endfacet
  facet normal -9.477568e-01 0.000000e+00 0.000000e+00
    outer loop
      vertex   -5.155984e+01 9.830742e+01 5.968824e+01
      vertex   -5.155984e+01 9.830742e+01 6.023224e+01
      vertex   -5.155984e+01 9.992368e+01 6.023224e+01
    endloop
  endfacet
  facet normal -0.000000e+00 -1.000000e+00 -0.000000e+00
    outer loop
      vertex   -5.155984e+01 9.680742e+01 6.023224e+01
      vertex   -5.363593e+01 9.680742e+01 6.023224e+01
      vertex   -5.155984e+01 9.680742e+01 5.968824e+01
    endloop
  endfacet
  facet normal 0.000000e+00 -2.534734e-01 0.000000e+00
    outer loop
      vertex   -5.155984e+01 9.680742e+01 5.968824e+01
      vertex   -5.363593e+01 9.680742e+01 6.023224e+01
      vertex   -5.449911e+01 9.680742e+01 5.968824e+01
    endloop
  endfacet
  facet normal 0.000000e+00 -8.460079e-01 0.000000e+00
    outer loop
      vertex   -5.449911e+01 9.680742e+01 5.968824e+01
      vertex   -5.363593e+01 9.680742e+01 6.023224e+01
      vertex   -5.449911e+01 9.680742e+01 6.043704e+01
    endloop
  endfacet
  facet normal 0.000000e+00 -2.308465e-01 0.000000e+00
    outer loop
      vertex   -5.449911e+01 9.680742e+01 6.043704e+01
      vertex   -5.363593e+01 9.680742e+01 6.023224e+01
      vertex   -5.363593e+01 9.680742e+01 6.043704e+01
    endloop
  endfacet
  facet normal -3.371141e-01 0.000000e+00 0.000000e+00
    outer loop
      vertex   -5.155984e+01 9.680742e+01 5.968824e+01
      vertex   -5.155984e+01 9.460593e+01 5.968824e+01
      vertex   -5.155984e+01 9.528819e+01 6.023224e+01
    endloop
  endfacet
  facet normal -8.716319e-01 -0.000000e+00 0.000000e+00
    outer loop
      vertex   -5.155984e+01 9.528819e+01 6.023224e+01
      vertex   -5.155984e+01 9.460593e+01 5.968824e+01
      vertex   -5.155984e+01 9.460593e+01 6.443703e+01
    endloop
  endfacet
  facet normal -1.601610e-01 0.000000e+00 0.000000e+00
    outer loop
      vertex   -5.155984e+01 9.528819e+01 6.023224e+01
      vertex   -5.155984e+01 9.460593e+01 6.443703e+01
      vertex   -5.155984e+01 9.528819e+01 6.443703e+01
    endloop
  endfacet
  facet normal -3.371141e-01 0.000000e+00 0.000000e+00
    outer loop
      vertex   -5.155984e+01 9.528819e+01 6.023224e+01
      vertex   -5.155984e+01 9.680742e+01 6.023224e+01
      vertex   -5.155984e+01 9.680742e+01 5.968824e+01
    endloop
  endfacet
  facet normal -0.000000e+00 0.000000e+00 -9.956518e-01
    outer loop
      vertex   -5.155984e+01 9.992368e+01 6.443703e+01
      vertex   -5.178727e+01 9.990240e+01 6.443703e+01
      vertex   -5.155984e+01 1.006059e+02 6.443703e+01
    endloop
  endfacet
  facet normal 0.000000e+00 0.000000e+00 -2.290622e-01
    outer loop
      vertex   -5.155984e+01 1.006059e+02 6.443703e+01
      vertex   -5.178727e+01 9.990240e+01 6.443703e+01
      vertex   -5.201151e+01 9.985886e+01 6.443703e+01
    endloop
  endfacet
  facet normal 0.000000e+00 0.000000e+00 -1.456857e-01
    outer loop
      vertex   -5.155984e+01 1.006059e+02 6.443703e+01
      vertex   -5.201151e+01 9.985886e+01 6.443703e+01
      vertex   -5.223038e+01 9.979347e+01 6.443703e+01
    endloop
  endfacet
  facet normal -0.000000e+00 0.000000e+00 -4.724185e-01
    outer loop
      vertex   -5.223038e+01 9.979347e+01 6.443703e+01
      vertex   -5.244176e+01 9.970689e+01 6.443703e+01
      vertex   -5.155984e+01 1.006059e+02 6.443703e+01
    endloop
  endfacet
  facet normal -0.000000e+00 0.000000e+00 -7.138742e-01
    outer loop
      vertex   -5.155984e+01 1.006059e+02 6.443703e+01
      vertex   -5.244176e+01 9.970689e+01 6.443703e+01
      vertex   -5.449911e+01 1.006059e+02 6.443703e+01
    endloop
  endfacet
  facet normal 0.000000e+00 0.000000e+00 -8.472890e-02
    outer loop
      vertex   -5.449911e+01 1.006059e+02 6.443703e+01
      vertex   -5.244176e+01 9.970689e+01 6.443703e+01
      vertex   -5.264360e+01 9.959992e+01 6.443703e+01
    endloop
  endfacet
  facet normal 0.000000e+00 0.000000e+00 -1.001865e-01
    outer loop
      vertex   -5.449911e+01 1.006059e+02 6.443703e+01
      vertex   -5.264360e+01 9.959992e+01 6.443703e+01
      vertex   -5.283394e+01 9.947363e+01 6.443703e+01
    endloop
  endfacet
  facet normal -0.000000e+00 0.000000e+00 -9.584352e-01
    outer loop
      vertex   -5.283394e+01 9.947363e+01 6.443703e+01
      vertex   -5.301094e+01 9.932924e+01 6.443703e+01
      vertex   -5.449911e+01 1.006059e+02 6.443703e+01
    endloop
  endfacet
  facet normal 0.000000e+00 0.000000e+00 -1.164157e-01
    outer loop
      vertex   -5.449911e+01 1.006059e+02 6.443703e+01
      vertex   -5.301094e+01 9.932924e+01 6.443703e+01
      vertex   -5.317288e+01 9.916814e+01 6.443703e+01
    endloop
  endfacet
  facet normal 0.000000e+00 0.000000e+00 -1.131606e-01
    outer loop
      vertex   -5.449911e+01 1.006059e+02 6.443703e+01
      vertex   -5.317288e+01 9.916814e+01 6.443703e+01
      vertex   -5.331820e+01 9.899189e+01 6.443703e+01
    endloop
  endfacet
  facet normal -0.000000e+00 0.000000e+00 -9.400082e-01
    outer loop
      vertex   -5.331820e+01 9.899189e+01 6.443703e+01
      vertex   -5.344547e+01 9.880221e+01 6.443703e+01
      vertex   -5.449911e+01 1.006059e+02 6.443703e+01
    endloop
  endfacet
  facet normal 0.000000e+00 0.000000e+00 -8.786651e-02
    outer loop
      vertex   -5.449911e+01 1.006059e+02 6.443703e+01
      vertex   -5.344547e+01 9.880221e+01 6.443703e+01
      vertex   -5.355348e+01 9.860093e+01 6.443703e+01
    endloop
  endfacet
  facet normal 0.000000e+00 0.000000e+00 -7.124098e-02
    outer loop
      vertex   -5.449911e+01 1.006059e+02 6.443703e+01
      vertex   -5.355348e+01 9.860093e+01 6.443703e+01
      vertex   -5.364117e+01 9.839001e+01 6.443703e+01
    endloop
  endfacet
  facet normal -0.000000e+00 0.000000e+00 -6.169861e-01
    outer loop
      vertex   -5.364117e+01 9.839001e+01 6.443703e+01
      vertex   -5.370769e+01 9.817148e+01 6.443703e+01
      vertex   -5.449911e+01 1.006059e+02 6.443703e+01
    endloop
  endfacet
  facet normal 0.000000e+00 0.000000e+00 -4.047858e-02
    outer loop
      vertex   -5.449911e+01 1.006059e+02 6.443703e+01
      vertex   -5.370769e+01 9.817148e+01 6.443703e+01
      vertex   -5.375240e+01 9.794746e+01 6.443703e+01
    endloop
  endfacet
  facet normal 0.000000e+00 0.000000e+00 -2.792957e-02
    outer loop
      vertex   -5.449911e+01 1.006059e+02 6.443703e+01
      vertex   -5.375240e+01 9.794746e+01 6.443703e+01
      vertex   -5.377486e+01 9.772015e+01 6.443703e+01
    endloop
  endfacet
  facet normal 0.000000e+00 0.000000e+00 -2.434224e-01
    outer loop
      vertex   -5.449911e+01 1.006059e+02 6.443703e+01
      vertex   -5.377486e+01 9.772015e+01 6.443703e+01
      vertex   -5.449911e+01 9.460593e+01 6.443703e+01
    endloop
  endfacet
  facet normal 0.000000e+00 0.000000e+00 -1.739067e-02
    outer loop
      vertex   -5.449911e+01 9.460593e+01 6.443703e+01
      vertex   -5.377486e+01 9.772015e+01 6.443703e+01
      vertex   -5.377486e+01 9.749172e+01 6.443703e+01
    endloop
  endfacet
  facet normal 0.000000e+00 0.000000e+00 -2.792957e-02
    outer loop
      vertex   -5.449911e+01 9.460593e+01 6.443703e+01
      vertex   -5.377486e+01 9.749172e+01 6.443703e+01
      vertex   -5.375240e+01 9.726440e+01 6.443703e+01
    endloop
  endfacet
  facet normal 0.000000e+00 -0.000000e+00 -4.536133e-01
    outer loop
      vertex   -5.375240e+01 9.726440e+01 6.443703e+01
      vertex   -5.370769e+01 9.704039e+01 6.443703e+01
      vertex   -5.449911e+01 9.460593e+01 6.443703e+01
    endloop
  endfacet
  facet normal 0.000000e+00 0.000000e+00 -5.505566e-02
    outer loop
      vertex   -5.449911e+01 9.460593e+01 6.443703e+01
      vertex   -5.370769e+01 9.704039e+01 6.443703e+01
      vertex   -5.364117e+01 9.682187e+01 6.443703e+01
    endloop
  endfacet
  facet normal 0.000000e+00 0.000000e+00 -7.124214e-02
    outer loop
      vertex   -5.449911e+01 9.460593e+01 6.443703e+01
      vertex   -5.364117e+01 9.682187e+01 6.443703e+01
      vertex   -5.355348e+01 9.661094e+01 6.443703e+01
    endloop
  endfacet
  facet normal 0.000000e+00 -0.000000e+00 -8.035268e-01
    outer loop
      vertex   -5.355348e+01 9.661094e+01 6.443703e+01
      vertex   -5.344547e+01 9.640966e+01 6.443703e+01
      vertex   -5.449911e+01 9.460593e+01 6.443703e+01
    endloop
  endfacet
  facet normal 0.000000e+00 0.000000e+00 -1.027914e-01
    outer loop
      vertex   -5.449911e+01 9.460593e+01 6.443703e+01
      vertex   -5.344547e+01 9.640966e+01 6.443703e+01
      vertex   -5.331820e+01 9.621998e+01 6.443703e+01
    endloop
  endfacet
  facet normal 0.000000e+00 0.000000e+00 -1.131606e-01
    outer loop
      vertex   -5.449911e+01 9.460593e+01 6.443703e+01
      vertex   -5.331820e+01 9.621998e+01 6.443703e+01
      vertex   -5.317288e+01 9.604373e+01 6.443703e+01
    endloop
  endfacet
  facet normal 0.000000e+00 -0.000000e+00 -9.992878e-01
    outer loop
      vertex   -5.317288e+01 9.604373e+01 6.443703e+01
      vertex   -5.301094e+01 9.588263e+01 6.443703e+01
      vertex   -5.449911e+01 9.460593e+01 6.443703e+01
    endloop
  endfacet
  facet normal 0.000000e+00 0.000000e+00 -1.116553e-01
    outer loop
      vertex   -5.449911e+01 9.460593e+01 6.443703e+01
      vertex   -5.301094e+01 9.588263e+01 6.443703e+01
      vertex   -5.283394e+01 9.573824e+01 6.443703e+01
    endloop
  endfacet
  facet normal 0.000000e+00 0.000000e+00 -1.001865e-01
    outer loop
      vertex   -5.449911e+01 9.460593e+01 6.443703e+01
      vertex   -5.283394e+01 9.573824e+01 6.443703e+01
      vertex   -5.264360e+01 9.561195e+01 6.443703e+01
    endloop
  endfacet
  facet normal 0.000000e+00 -0.000000e+00 -8.327750e-01
    outer loop
      vertex   -5.264360e+01 9.561195e+01 6.443703e+01
      vertex   -5.244176e+01 9.550499e+01 6.443703e+01
      vertex   -5.449911e+01 9.460593e+01 6.443703e+01
    endloop
  endfacet
  facet normal 0.000000e+00 0.000000e+00 -4.004306e-01
    outer loop
      vertex   -5.449911e+01 9.460593e+01 6.443703e+01
      vertex   -5.244176e+01 9.550499e+01 6.443703e+01
      vertex   -5.155984e+01 9.460593e+01 6.443703e+01
    endloop
  endfacet
  facet normal 0.000000e+00 0.000000e+00 -8.568222e-02
    outer loop
      vertex   -5.155984e+01 9.460593e+01 6.443703e+01
      vertex   -5.244176e+01 9.550499e+01 6.443703e+01
      vertex   -5.223038e+01 9.541840e+01 6.443703e+01
    endloop
  endfacet
  facet normal 0.000000e+00 0.000000e+00 -1.456857e-01
    outer loop
      vertex   -5.155984e+01 9.460593e+01 6.443703e+01
      vertex   -5.223038e+01 9.541840e+01 6.443703e+01
      vertex   -5.201151e+01 9.535301e+01 6.443703e+01
    endloop
  endfacet
  facet normal 0.000000e+00 0.000000e+00 -7.414272e-01
    outer loop
      vertex   -5.201151e+01 9.535301e+01 6.443703e+01
      vertex   -5.178727e+01 9.530946e+01 6.443703e+01
      vertex   -5.155984e+01 9.460593e+01 6.443703e+01
    endloop
  endfacet
  facet normal 0.000000e+00 0.000000e+00 -3.075997e-01
    outer loop
      vertex   -5.155984e+01 9.460593e+01 6.443703e+01
      vertex   -5.178727e+01 9.530946e+01 6.443703e+01
      vertex   -5.155984e+01 9.528819e+01 6.443703e+01
    endloop
  endfacet
  facet normal -0.000000e+00 -1.000000e+00 -0.000000e+00
    outer loop
      vertex   -5.022056e+01 9.991593e+01 6.627176e+01
      vertex   -5.145768e+01 9.991593e+01 6.627176e+01
      vertex   -5.022056e+01 9.991593e+01 6.023224e+01
    endloop
  endfacet
  facet normal 0.000000e+00 -9.796588e-01 0.000000e+00
    outer loop
      vertex   -5.022056e+01 9.991593e+01 6.023224e+01
      vertex   -5.145768e+01 9.991593e+01 6.627176e+01
      vertex   -5.145768e+01 9.991593e+01 6.023224e+01
    endloop
  endfacet
  facet normal -1.000000e+00 -0.000000e+00 -0.000000e+00
    outer loop
      vertex   -5.145768e+01 9.992593e+01 6.627176e+01
      vertex   -5.145768e+01 9.992593e+01 6.023224e+01
      vertex   -5.145768e+01 9.991593e+01 6.627176e+01
    endloop
  endfacet
  facet normal -1.656113e-03 0.000000e+00 0.000000e+00
    outer loop
      vertex   -5.145768e+01 9.991593e+01 6.627176e+01
      vertex   -5.145768e+01 9.992593e+01 6.023224e+01
      vertex   -5.145768e+01 9.991593e+01 6.023224e+01
    endloop
  endfacet
  facet normal 9.663576e-01 -2.572023e-01 0.000000e+00
    outer loop
      vertex   -5.366908e+01 9.830742e+01 6.043704e+01
      vertex   -5.372520e+01 9.809657e+01 6.043704e+01
      vertex   -5.366908e+01 9.830742e+01 6.023224e+01
    endloop
  endfacet
  facet normal 6.613548e-01 -1.760238e-01 0.000000e+00
    outer loop
      vertex   -5.366908e+01 9.830742e+01 6.023224e+01
      vertex   -5.372520e+01 9.809657e+01 6.043704e+01
      vertex   -5.372520e+01 9.809657e+01 6.023224e+01
    endloop
  endfacet
  facet normal 7.190882e-01 -1.205194e-01 0.000000e+00
    outer loop
      vertex   -5.372520e+01 9.809657e+01 6.023224e+01
      vertex   -5.372520e+01 9.809657e+01 6.043704e+01
      vertex   -5.376126e+01 9.788139e+01 6.043704e+01
    endloop
  endfacet
  facet normal 6.749739e-01 -1.131259e-01 -1.387779e-17
    outer loop
      vertex   -5.372520e+01 9.809657e+01 6.023224e+01
      vertex   -5.376126e+01 9.788139e+01 6.043704e+01
      vertex   -5.376126e+01 9.788139e+01 6.023224e+01
    endloop
  endfacet
  facet normal 7.272260e-01 -5.243278e-02 0.000000e+00
    outer loop
      vertex   -5.376126e+01 9.788139e+01 6.023224e+01
      vertex   -5.376126e+01 9.788139e+01 6.043704e+01
      vertex   -5.377695e+01 9.766378e+01 6.043704e+01
    endloop
  endfacet
  facet normal 6.826206e-01 -4.921674e-02 0.000000e+00
    outer loop
      vertex   -5.376126e+01 9.788139e+01 6.023224e+01
      vertex   -5.377695e+01 9.766378e+01 6.043704e+01
      vertex   -5.377695e+01 9.766378e+01 6.023224e+01
    endloop
  endfacet
  facet normal 7.289350e-01 1.611357e-02 -0.000000e+00
    outer loop
      vertex   -5.377695e+01 9.766378e+01 6.023224e+01
      vertex   -5.377695e+01 9.766378e+01 6.043704e+01
      vertex   -5.377213e+01 9.744566e+01 6.043704e+01
    endloop
  endfacet
  facet normal 6.842261e-01 1.512525e-02 0.000000e+00
    outer loop
      vertex   -5.377695e+01 9.766378e+01 6.023224e+01
      vertex   -5.377213e+01 9.744566e+01 6.043704e+01
      vertex   -5.377213e+01 9.744566e+01 6.023224e+01
    endloop
  endfacet
  facet normal 7.242075e-01 8.451849e-02 -0.000000e+00
    outer loop
      vertex   -5.377213e+01 9.744566e+01 6.023224e+01
      vertex   -5.377213e+01 9.744566e+01 6.043704e+01
      vertex   -5.374684e+01 9.722894e+01 6.043704e+01
    endloop
  endfacet
  facet normal 6.797695e-01 7.933237e-02 0.000000e+00
    outer loop
      vertex   -5.377213e+01 9.744566e+01 6.023224e+01
      vertex   -5.374684e+01 9.722894e+01 6.043704e+01
      vertex   -5.374684e+01 9.722894e+01 6.023224e+01
    endloop
  endfacet
  facet normal 7.130536e-01 1.521744e-01 -0.000000e+00
    outer loop
      vertex   -5.374684e+01 9.722894e+01 6.023224e+01
      vertex   -5.374684e+01 9.722894e+01 6.043704e+01
      vertex   -5.370131e+01 9.701557e+01 6.043704e+01
    endloop
  endfacet
  facet normal 6.693234e-01 1.428418e-01 0.000000e+00
    outer loop
      vertex   -5.374684e+01 9.722894e+01 6.023224e+01
      vertex   -5.370131e+01 9.701557e+01 6.043704e+01
      vertex   -5.370131e+01 9.701557e+01 6.023224e+01
    endloop
  endfacet
  facet normal 6.956091e-01 2.184885e-01 -0.000000e+00
    outer loop
      vertex   -5.370131e+01 9.701557e+01 6.023224e+01
      vertex   -5.370131e+01 9.701557e+01 6.043704e+01
      vertex   -5.363593e+01 9.680742e+01 6.043704e+01
    endloop
  endfacet
  facet normal 6.529398e-01 2.050862e-01 2.775558e-17
    outer loop
      vertex   -5.370131e+01 9.701557e+01 6.023224e+01
      vertex   -5.363593e+01 9.680742e+01 6.043704e+01
      vertex   -5.363593e+01 9.680742e+01 6.023224e+01
    endloop
  endfacet
  facet normal -0.000000e+00 0.000000e+00 9.663576e-01
    outer loop
      vertex   -5.366908e+01 9.830742e+01 6.023224e+01
      vertex   -5.372520e+01 9.809657e+01 6.023224e+01
      vertex   -5.155984e+01 9.830742e+01 6.023224e+01
    endloop
  endfacet
  facet normal 0.000000e+00 0.000000e+00 9.395448e-02
    outer loop
      vertex   -5.155984e+01 9.830742e+01 6.023224e+01
      vertex   -5.372520e+01 9.809657e+01 6.023224e+01
      vertex   -5.376126e+01 9.788139e+01 6.023224e+01
    endloop
  endfacet
  facet normal 0.000000e+00 0.000000e+00 9.125159e-02
    outer loop
      vertex   -5.155984e+01 9.830742e+01 6.023224e+01
      vertex   -5.376126e+01 9.788139e+01 6.023224e+01
      vertex   -5.377695e+01 9.766378e+01 6.023224e+01
    endloop
  endfacet
  facet normal -0.000000e+00 0.000000e+00 9.662778e-01
    outer loop
      vertex   -5.377695e+01 9.766378e+01 6.023224e+01
      vertex   -5.377213e+01 9.744566e+01 6.023224e+01
      vertex   -5.155984e+01 9.830742e+01 6.023224e+01
    endloop
  endfacet
  facet normal 0.000000e+00 0.000000e+00 9.318017e-01
    outer loop
      vertex   -5.155984e+01 9.830742e+01 6.023224e+01
      vertex   -5.377213e+01 9.744566e+01 6.023224e+01
      vertex   -5.155984e+01 9.680742e+01 6.023224e+01
    endloop
  endfacet
  facet normal 0.000000e+00 0.000000e+00 4.063520e-01
    outer loop
      vertex   -5.155984e+01 9.830742e+01 6.023224e+01
      vertex   -5.155984e+01 9.680742e+01 6.023224e+01
      vertex   -5.022056e+01 9.529594e+01 6.023224e+01
    endloop
  endfacet
  facet normal 0.000000e+00 0.000000e+00 7.484560e-01
    outer loop
      vertex   -5.022056e+01 9.529594e+01 6.023224e+01
      vertex   -5.155984e+01 9.680742e+01 6.023224e+01
      vertex   -5.145768e+01 9.529594e+01 6.023224e+01
    endloop
  endfacet
  facet normal 0.000000e+00 0.000000e+00 9.999660e-01
    outer loop
      vertex   -5.145768e+01 9.529594e+01 6.023224e+01
      vertex   -5.155984e+01 9.680742e+01 6.023224e+01
      vertex   -5.155984e+01 9.528819e+01 6.023224e+01
    endloop
  endfacet
  facet normal 0.000000e+00 0.000000e+00 5.564122e-02
    outer loop
      vertex   -5.145768e+01 9.529594e+01 6.023224e+01
      vertex   -5.155984e+01 9.528819e+01 6.023224e+01
      vertex   -5.152579e+01 9.528693e+01 6.023224e+01
    endloop
  endfacet
  facet normal 0.000000e+00 0.000000e+00 9.222065e-01
    outer loop
      vertex   -5.377213e+01 9.744566e+01 6.023224e+01
      vertex   -5.374684e+01 9.722894e+01 6.023224e+01
      vertex   -5.155984e+01 9.680742e+01 6.023224e+01
    endloop
  endfacet
  facet normal 0.000000e+00 0.000000e+00 9.337275e-02
    outer loop
      vertex   -5.155984e+01 9.680742e+01 6.023224e+01
      vertex   -5.374684e+01 9.722894e+01 6.023224e+01
      vertex   -5.370131e+01 9.701557e+01 6.023224e+01
    endloop
  endfacet
  facet normal 0.000000e+00 0.000000e+00 9.674502e-02
    outer loop
      vertex   -5.155984e+01 9.680742e+01 6.023224e+01
      vertex   -5.370131e+01 9.701557e+01 6.023224e+01
      vertex   -5.363593e+01 9.680742e+01 6.023224e+01
    endloop
  endfacet
  facet normal -0.000000e+00 0.000000e+00 1.527515e-01
    outer loop
      vertex   -5.152579e+01 9.528693e+01 6.023224e+01
      vertex   -5.149174e+01 9.528619e+01 6.023224e+01
      vertex   -5.145768e+01 9.529594e+01 6.023224e+01
    endloop
  endfacet
  facet normal 0.000000e+00 0.000000e+00 9.613938e-01
    outer loop
      vertex   -5.145768e+01 9.529594e+01 6.023224e+01
      vertex   -5.149174e+01 9.528619e+01 6.023224e+01
      vertex   -5.145768e+01 9.528593e+01 6.023224e+01
    endloop
  endfacet
  facet normal 0.000000e+00 -0.000000e+00 4.063520e-01
    outer loop
      vertex   -5.022056e+01 9.529594e+01 6.023224e+01
      vertex   -5.022056e+01 9.991593e+01 6.023224e+01
      vertex   -5.155984e+01 9.830742e+01 6.023224e+01
    endloop
  endfacet
  facet normal 0.000000e+00 0.000000e+00 5.898629e-01
    outer loop
      vertex   -5.155984e+01 9.830742e+01 6.023224e+01
      vertex   -5.022056e+01 9.991593e+01 6.023224e+01
      vertex   -5.145768e+01 9.991593e+01 6.023224e+01
    endloop
  endfacet
  facet normal 0.000000e+00 0.000000e+00 6.338524e-02
    outer loop
      vertex   -5.155984e+01 9.830742e+01 6.023224e+01
      vertex   -5.145768e+01 9.991593e+01 6.023224e+01
      vertex   -5.155984e+01 9.992368e+01 6.023224e+01
    endloop
  endfacet
  facet normal -0.000000e+00 0.000000e+00 1.122309e-01
    outer loop
      vertex   -5.155984e+01 9.992368e+01 6.023224e+01
      vertex   -5.145768e+01 9.991593e+01 6.023224e+01
      vertex   -5.152579e+01 9.992493e+01 6.023224e+01
    endloop
  endfacet
  facet normal -0.000000e+00 0.000000e+00 1.527515e-01
    outer loop
      vertex   -5.152579e+01 9.992493e+01 6.023224e+01
      vertex   -5.145768e+01 9.991593e+01 6.023224e+01
      vertex   -5.149174e+01 9.992568e+01 6.023224e+01
    endloop
  endfacet
  facet normal -0.000000e+00 0.000000e+00 2.822739e-01
    outer loop
      vertex   -5.149174e+01 9.992568e+01 6.023224e+01
      vertex   -5.145768e+01 9.991593e+01 6.023224e+01
      vertex   -5.145768e+01 9.992593e+01 6.023224e+01
    endloop
  endfacet
  facet normal -1.000000e+00 0.000000e+00 0.000000e+00
    outer loop
      vertex   -5.449911e+01 9.460593e+01 6.443703e+01
      vertex   -5.449911e+01 9.460593e+01 6.512824e+01
      vertex   -5.449911e+01 1.006059e+02 6.443703e+01
    endloop
  endfacet
  facet normal -9.934297e-01 0.000000e+00 0.000000e+00
    outer loop
      vertex   -5.449911e+01 1.006059e+02 6.443703e+01
      vertex   -5.449911e+01 9.460593e+01 6.512824e+01
      vertex   -5.449911e+01 1.006059e+02 6.512824e+01
    endloop
  endfacet
  facet normal 0.000000e+00 0.000000e+00 4.061550e-01
    outer loop
      vertex   -5.471030e+01 9.409564e+01 6.370845e+01
      vertex   -5.451029e+01 9.454564e+01 6.370845e+01
      vertex   -5.471030e+01 1.009956e+02 6.370845e+01
    endloop
  endfacet
  facet normal 0.000000e+00 0.000000e+00 4.690078e-01
    outer loop
      vertex   -5.471030e+01 1.009956e+02 6.370845e+01
      vertex   -5.451029e+01 9.454564e+01 6.370845e+01
      vertex   -5.451029e+01 1.006456e+02 6.370845e+01
    endloop
  endfacet
  facet normal -0.000000e+00 0.000000e+00 8.682333e-01
    outer loop
      vertex   -5.471030e+01 1.009956e+02 6.370845e+01
      vertex   -5.451029e+01 1.006456e+02 6.370845e+01
      vertex   -4.931030e+01 1.009956e+02 6.370845e+01
    endloop
  endfacet
  facet normal 0.000000e+00 0.000000e+00 8.329718e-01
    outer loop
      vertex   -4.931030e+01 1.009956e+02 6.370845e+01
      vertex   -5.451029e+01 1.006456e+02 6.370845e+01
      vertex   -4.951029e+01 1.006456e+02 6.370845e+01
    endloop
  endfacet
  facet normal 0.000000e+00 0.000000e+00 6.789830e-02
    outer loop
      vertex   -4.931030e+01 1.009956e+02 6.370845e+01
      vertex   -4.951029e+01 1.006456e+02 6.370845e+01
      vertex   -4.949911e+01 1.006059e+02 6.370845e+01
    endloop
  endfacet
  facet normal 0.000000e+00 0.000000e+00 9.626223e-01
    outer loop
      vertex   -4.949911e+01 1.006059e+02 6.370845e+01
      vertex   -4.951029e+01 1.006456e+02 6.370845e+01
      vertex   -4.951029e+01 1.006059e+02 6.370845e+01
    endloop
  endfacet
  facet normal 0.000000e+00 0.000000e+00 9.138042e-01
    outer loop
      vertex   -5.471030e+01 9.409564e+01 6.370845e+01
      vertex   -4.931030e+01 9.409564e+01 6.370845e+01
      vertex   -5.451029e+01 9.454564e+01 6.370845e+01
    endloop
  endfacet
  facet normal -0.000000e+00 0.000000e+00 8.621576e-02
    outer loop
      vertex   -5.451029e+01 9.454564e+01 6.370845e+01
      vertex   -4.931030e+01 9.409564e+01 6.370845e+01
      vertex   -4.951029e+01 9.454564e+01 6.370845e+01
    endloop
  endfacet
  facet normal -0.000000e+00 0.000000e+00 5.658345e-01
    outer loop
      vertex   -4.951029e+01 9.454564e+01 6.370845e+01
      vertex   -4.931030e+01 9.409564e+01 6.370845e+01
      vertex   -4.949911e+01 9.460593e+01 6.370845e+01
    endloop
  endfacet
  facet normal 0.000000e+00 0.000000e+00 1.822073e-01
    outer loop
      vertex   -4.951029e+01 9.454564e+01 6.370845e+01
      vertex   -4.949911e+01 9.460593e+01 6.370845e+01
      vertex   -4.951029e+01 9.460593e+01 6.370845e+01
    endloop
  endfacet
  facet normal 0.000000e+00 -0.000000e+00 3.470280e-01
    outer loop
      vertex   -4.931030e+01 9.409564e+01 6.370845e+01
      vertex   -4.931030e+01 1.009956e+02 6.370845e+01
      vertex   -4.949911e+01 9.460593e+01 6.370845e+01
    endloop
  endfacet
  facet normal 0.000000e+00 0.000000e+00 2.953773e-02
    outer loop
      vertex   -4.949911e+01 9.460593e+01 6.370845e+01
      vertex   -4.931030e+01 1.009956e+02 6.370845e+01
      vertex   -4.949911e+01 1.006059e+02 6.370845e+01
    endloop
  endfacet
  facet normal -1.000000e+00 -0.000000e+00 -0.000000e+00
    outer loop
      vertex   -4.951029e+01 9.460593e+01 6.370845e+01
      vertex   -4.951029e+01 9.460593e+01 6.187176e+01
      vertex   -4.951029e+01 9.454564e+01 6.370845e+01
    endloop
  endfacet
  facet normal -3.281041e-02 0.000000e+00 0.000000e+00
    outer loop
      vertex   -4.951029e+01 9.454564e+01 6.370845e+01
      vertex   -4.951029e+01 9.460593e+01 6.187176e+01
      vertex   -4.951029e+01 9.454564e+01 6.187176e+01
    endloop
  endfacet
  facet normal -1.000000e+00 0.000000e+00 0.000000e+00
    outer loop
      vertex   -4.951029e+01 1.006059e+02 6.187176e+01
      vertex   -4.951029e+01 1.006059e+02 6.370845e+01
      vertex   -4.951029e+01 1.006456e+02 6.187176e+01
    endloop
  endfacet
  facet normal -2.161587e-02 0.000000e+00 0.000000e+00
    outer loop
      vertex   -4.951029e+01 1.006456e+02 6.187176e+01
      vertex   -4.951029e+01 1.006059e+02 6.370845e+01
      vertex   -4.951029e+01 1.006456e+02 6.370845e+01
    endloop
  endfacet
  facet normal -1.000000e+00 -0.000000e+00 -0.000000e+00
    outer loop
      vertex   -4.931030e+01 1.009956e+02 6.512824e+01
      vertex   -4.931030e+01 1.009956e+02 6.370845e+01
      vertex   -4.931030e+01 9.409564e+01 6.512824e+01
    endloop
  endfacet
  facet normal -9.794794e-01 0.000000e+00 0.000000e+00
    outer loop
      vertex   -4.931030e+01 9.409564e+01 6.512824e+01
      vertex   -4.931030e+01 1.009956e+02 6.370845e+01
      vertex   -4.931030e+01 9.409564e+01 6.370845e+01
    endloop
  endfacet
  facet normal 0.000000e+00 1.000000e+00 0.000000e+00
    outer loop
      vertex   -4.931030e+01 9.409564e+01 6.512824e+01
      vertex   -4.931030e+01 9.409564e+01 6.370845e+01
      vertex   -5.471030e+01 9.409564e+01 6.512824e+01
    endloop
  endfacet
  facet normal 0.000000e+00 9.671301e-01 0.000000e+00
    outer loop
      vertex   -5.471030e+01 9.409564e+01 6.512824e+01
      vertex   -4.931030e+01 9.409564e+01 6.370845e+01
      vertex   -5.471030e+01 9.409564e+01 6.370845e+01
    endloop
  endfacet
  facet normal -9.142454e-03 9.999582e-01 0.000000e+00
    outer loop
      vertex   -5.991930e+01 1.124669e+02 6.627176e+01
      vertex   -4.441991e+01 1.126086e+02 6.627176e+01
      vertex   -5.991930e+01 1.124669e+02 6.166243e+01
    endloop
  endfacet
  facet normal -2.609466e-03 2.854118e-01 -2.588030e-08
    outer loop
      vertex   -5.991930e+01 1.124669e+02 6.166243e+01
      vertex   -4.441991e+01 1.126086e+02 6.627176e+01
      vertex   -4.441986e+01 1.126086e+02 6.165621e+01
    endloop
  endfacet
  facet normal 0.000000e+00 -1.000000e+00 0.000000e+00
    outer loop
      vertex   -4.951029e+01 1.006456e+02 6.187176e+01
      vertex   -4.951029e+01 1.006456e+02 6.370845e+01
      vertex   -5.451029e+01 1.006456e+02 6.187176e+01
    endloop
  endfacet
  facet normal 0.000000e+00 -9.386723e-01 0.000000e+00
    outer loop
      vertex   -5.451029e+01 1.006456e+02 6.187176e+01
      vertex   -4.951029e+01 1.006456e+02 6.370845e+01
      vertex   -5.451029e+01 1.006456e+02 6.370845e+01
    endloop
  endfacet
  facet normal 0.000000e+00 1.000000e+00 0.000000e+00
    outer loop
      vertex   -5.451029e+01 9.454564e+01 6.187176e+01
      vertex   -5.451029e+01 9.454564e+01 6.370845e+01
      vertex   -4.951029e+01 9.454564e+01 6.187176e+01
    endloop
  endfacet
  facet normal 0.000000e+00 9.386723e-01 -0.000000e+00
    outer loop
      vertex   -4.951029e+01 9.454564e+01 6.187176e+01
      vertex   -5.451029e+01 9.454564e+01 6.370845e+01
      vertex   -4.951029e+01 9.454564e+01 6.370845e+01
    endloop
  endfacet
  facet normal 1.000000e+00 -0.000000e+00 0.000000e+00
    outer loop
      vertex   -5.451029e+01 9.454564e+01 6.370845e+01
      vertex   -5.451029e+01 9.454564e+01 6.187176e+01
      vertex   -5.451029e+01 1.006456e+02 6.370845e+01
    endloop
  endfacet
  facet normal 9.575367e-01 0.000000e+00 0.000000e+00
    outer loop
      vertex   -5.451029e+01 1.006456e+02 6.370845e+01
      vertex   -5.451029e+01 9.454564e+01 6.187176e+01
      vertex   -5.451029e+01 1.006456e+02 6.187176e+01
    endloop
  endfacet
  facet normal 0.000000e+00 -1.000000e+00 0.000000e+00
    outer loop
      vertex   -5.471030e+01 1.009956e+02 6.512824e+01
      vertex   -5.471030e+01 1.009956e+02 6.370845e+01
      vertex   -4.931030e+01 1.009956e+02 6.512824e+01
    endloop
  endfacet
  facet normal 0.000000e+00 -9.671301e-01 -0.000000e+00
    outer loop
      vertex   -4.931030e+01 1.009956e+02 6.512824e+01
      vertex   -5.471030e+01 1.009956e+02 6.370845e+01
      vertex   -4.931030e+01 1.009956e+02 6.370845e+01
    endloop
  endfacet
  facet normal 1.000000e+00 -0.000000e+00 0.000000e+00
    outer loop
      vertex   -5.471030e+01 9.409564e+01 6.512824e+01
      vertex   -5.471030e+01 9.409564e+01 6.370845e+01
      vertex   -5.471030e+01 1.009956e+02 6.512824e+01
    endloop
  endfacet
  facet normal 9.794794e-01 0.000000e+00 0.000000e+00
    outer loop
      vertex   -5.471030e+01 1.009956e+02 6.512824e+01
      vertex   -5.471030e+01 9.409564e+01 6.370845e+01
      vertex   -5.471030e+01 1.009956e+02 6.370845e+01
    endloop
  endfacet
  facet normal 0.000000e+00 -4.181086e-02 -9.523206e-01
    outer loop
      vertex   -5.991930e+01 1.124669e+02 6.166243e+01
      vertex   -4.437500e+01 1.076990e+02 6.187176e+01
      vertex   -5.987570e+01 1.076990e+02 6.187176e+01
    endloop
  endfacet
  facet normal -1.127975e-08 -4.386197e-02 -9.990376e-01
    outer loop
      vertex   -4.441986e+01 1.126086e+02 6.165621e+01
      vertex   -4.437500e+01 1.076990e+02 6.187176e+01
      vertex   -5.991930e+01 1.124669e+02 6.166243e+01
    endloop
  endfacet
  facet normal 0.000000e+00 0.000000e+00 -1.000000e+00
    outer loop
      vertex   -4.951029e+01 1.006059e+02 6.187176e+01
      vertex   -4.951029e+01 1.006456e+02 6.187176e+01
      vertex   -4.949911e+01 1.006059e+02 6.187176e+01
    endloop
  endfacet
  facet normal 0.000000e+00 0.000000e+00 -7.832526e-01
    outer loop
      vertex   -4.949911e+01 1.006059e+02 6.187176e+01
      vertex   -4.951029e+01 1.006456e+02 6.187176e+01
      vertex   -4.437500e+01 1.076990e+02 6.187176e+01
    endloop
  endfacet
  facet normal 3.174379e-07 -2.293197e-07 -9.307590e-01
    outer loop
      vertex   -4.949911e+01 1.006059e+02 6.187176e+01
      vertex   -4.437500e+01 1.076990e+02 6.187176e+01
      vertex   -4.423528e+01 9.240942e+01 6.187176e+01
    endloop
  endfacet
  facet normal 0.000000e+00 0.000000e+00 -8.084334e-01
    outer loop
      vertex   -4.951029e+01 1.006456e+02 6.187176e+01
      vertex   -5.451029e+01 1.006456e+02 6.187176e+01
      vertex   -4.437500e+01 1.076990e+02 6.187176e+01
    endloop
  endfacet
  facet normal -0.000000e+00 0.000000e+00 -5.712149e-01
    outer loop
      vertex   -4.437500e+01 1.076990e+02 6.187176e+01
      vertex   -5.451029e+01 1.006456e+02 6.187176e+01
      vertex   -5.987570e+01 1.076990e+02 6.187176e+01
    endloop
  endfacet
  facet normal 0.000000e+00 0.000000e+00 -5.981253e-01
    outer loop
      vertex   -5.987570e+01 1.076990e+02 6.187176e+01
      vertex   -5.451029e+01 1.006456e+02 6.187176e+01
      vertex   -5.973458e+01 9.226772e+01 6.187176e+01
    endloop
  endfacet
  facet normal 0.000000e+00 0.000000e+00 -5.663319e-01
    outer loop
      vertex   -5.973458e+01 9.226772e+01 6.187176e+01
      vertex   -5.451029e+01 1.006456e+02 6.187176e+01
      vertex   -5.451029e+01 9.454564e+01 6.187176e+01
    endloop
  endfacet
  facet normal 0.000000e+00 0.000000e+00 -1.907805e-01
    outer loop
      vertex   -5.973458e+01 9.226772e+01 6.187176e+01
      vertex   -5.451029e+01 9.454564e+01 6.187176e+01
      vertex   -4.951029e+01 9.454564e+01 6.187176e+01
    endloop
  endfacet
  facet normal 0.000000e+00 0.000000e+00 -1.000000e+00
    outer loop
      vertex   -4.951029e+01 9.460593e+01 6.187176e+01
      vertex   -4.949911e+01 9.460593e+01 6.187176e+01
      vertex   -4.951029e+01 9.454564e+01 6.187176e+01
    endloop
  endfacet
  facet normal 6.590654e-07 -1.221310e-07 -9.797572e-01
    outer loop
      vertex   -4.951029e+01 9.454564e+01 6.187176e+01
      vertex   -4.949911e+01 9.460593e+01 6.187176e+01
      vertex   -4.423528e+01 9.240942e+01 6.187176e+01
    endloop
  endfacet
  facet normal 1.457627e-07 -6.542450e-07 -5.679371e-01
    outer loop
      vertex   -4.951029e+01 9.454564e+01 6.187176e+01
      vertex   -4.423528e+01 9.240942e+01 6.187176e+01
      vertex   -5.973458e+01 9.226772e+01 6.187176e+01
    endloop
  endfacet
  facet normal 6.688061e-07 0.000000e+00 -9.228749e-01
    outer loop
      vertex   -4.949911e+01 9.460593e+01 6.187176e+01
      vertex   -4.949911e+01 1.006059e+02 6.187176e+01
      vertex   -4.423528e+01 9.240942e+01 6.187176e+01
    endloop
  endfacet
  facet normal 9.989960e-01 9.129523e-03 9.907898e-06
    outer loop
      vertex   -4.441986e+01 1.126086e+02 6.165621e+01
      vertex   -4.441991e+01 1.126086e+02 6.627176e+01
      vertex   -4.437500e+01 1.076990e+02 6.187176e+01
    endloop
  endfacet
  facet normal 8.472716e-01 7.742928e-03 8.438286e-06
    outer loop
      vertex   -4.437500e+01 1.076990e+02 6.187176e+01
      vertex   -4.441991e+01 1.126086e+02 6.627176e+01
      vertex   -4.423532e+01 9.240942e+01 6.627176e+01
    endloop
  endfacet
  facet normal 2.765310e-01 2.527090e-03 2.637207e-06
    outer loop
      vertex   -4.437500e+01 1.076990e+02 6.187176e+01
      vertex   -4.423532e+01 9.240942e+01 6.627176e+01
      vertex   -4.423528e+01 9.240942e+01 6.187176e+01
    endloop
  endfacet
endsolid
